<svg width="60" height="60" viewBox="0 0 60 60" fill="none" xmlns="http://www.w3.org/2000/svg">
<g id="email 1">
<path id="Vector" d="M50.4872 46.9535H9.51246C8.18061 46.952 6.90375 46.4222 5.96203 45.4804C5.02032 44.5386 4.49066 43.2617 4.48926 41.9299V16.6243C4.49066 15.2924 5.02032 14.0155 5.96203 13.0737C6.90375 12.1319 8.18061 11.6021 9.51246 11.6006H50.4872C51.819 11.6021 53.0959 12.1319 54.0376 13.0737C54.9793 14.0155 55.509 15.2924 55.5104 16.6243V41.9299C55.509 43.2617 54.9793 44.5386 54.0376 45.4804C53.0959 46.4222 51.819 46.952 50.4872 46.9535ZM9.51246 13.5206C8.68963 13.5215 7.90076 13.8488 7.31898 14.4306C6.73719 15.0125 6.41002 15.8014 6.40926 16.6243V41.9299C6.41002 42.7527 6.73719 43.5416 7.31898 44.1235C7.90076 44.7054 8.68963 45.0327 9.51246 45.0335H50.4872C51.31 45.0327 52.0989 44.7054 52.6807 44.1235C53.2624 43.5416 53.5896 42.7527 53.5904 41.9299V16.6243C53.5896 15.8014 53.2624 15.0125 52.6807 14.4306C52.0989 13.8488 51.31 13.5215 50.4872 13.5206H9.51246Z" fill="black"/>
<path id="Vector_2" d="M30 34.9263C29.766 34.9264 29.54 34.8411 29.3645 34.6863L6.22852 14.2632L7.49908 12.8232L30 32.6876L52.502 12.8256L53.7725 14.2656L30.6365 34.6887C30.4605 34.843 30.2341 34.9276 30 34.9263Z" fill="black"/>
<path id="Vector_3" d="M5.70605 43.9385L21.2486 26.2294L22.6924 27.4966L7.14989 45.2057L5.70605 43.9385Z" fill="black"/>
<path id="Vector_4" d="M37.3564 27.4785L38.8003 26.2113L54.3431 43.9207L52.8993 45.1879L37.3564 27.4785Z" fill="black"/>
</g>
</svg>
