<svg width="20" height="20" viewBox="0 0 20 20" fill="none" xmlns="http://www.w3.org/2000/svg">
<g id="Brand">
<g id="Iconspace_User 1_25px">
<g id="facebook">
<path id="Path" fill-rule="evenodd" clip-rule="evenodd" d="M17.4756 1.59961H2.52361C2.0133 1.59961 1.59961 2.0133 1.59961 2.52361V17.4756C1.59961 17.7207 1.69696 17.9557 1.87024 18.129C2.04353 18.3023 2.27855 18.3996 2.52361 18.3996H10.5708V11.8896H8.38681V9.36961H10.5708V7.47961C10.4792 6.58141 10.7893 5.68866 11.4179 5.04059C12.0465 4.39253 12.9294 4.05542 13.83 4.11961C14.4838 4.11559 15.1373 4.14924 15.7872 4.22041V6.48841H14.4516C13.3932 6.48841 13.1916 6.99241 13.1916 7.72321V9.34441H15.7116L15.384 11.8644H13.1916V18.3996H17.4756C17.7207 18.3996 17.9557 18.3023 18.129 18.129C18.3023 17.9557 18.3996 17.7207 18.3996 17.4756V2.52361C18.3996 2.27855 18.3023 2.04353 18.129 1.87024C17.9557 1.69696 17.7207 1.59961 17.4756 1.59961Z" fill="#2F302C"/>
</g>
</g>
</g>
</svg>
