<svg width="20" height="20" viewBox="0 0 20 20" fill="none" xmlns="http://www.w3.org/2000/svg">
<g id="Brand">
<g id="Iconspace_User 1_25px">
<g id="instagram (1)">
<path id="Shape" fill-rule="evenodd" clip-rule="evenodd" d="M14.4852 4.50601C14.0775 4.50601 13.71 4.7516 13.5539 5.12826C13.3979 5.50493 13.4842 5.93849 13.7724 6.22677C14.0607 6.51506 14.4943 6.6013 14.871 6.44528C15.2476 6.28926 15.4932 5.92171 15.4932 5.51401C15.4932 4.95731 15.0419 4.50601 14.4852 4.50601ZM18.3492 6.53881C18.3329 5.84186 18.2023 5.15231 17.9628 4.49761C17.7492 3.93744 17.4168 3.4302 16.9884 3.01081C16.5725 2.58025 16.064 2.24992 15.5016 2.04481C14.8486 1.79798 14.1583 1.66447 13.4604 1.65001C12.57 1.59961 12.2844 1.59961 9.99961 1.59961C7.71481 1.59961 7.42921 1.59961 6.53881 1.65001C5.8409 1.66447 5.15058 1.79798 4.49761 2.04481C3.93622 2.25199 3.42823 2.58204 3.01081 3.01081C2.58025 3.42676 2.24992 3.93518 2.04481 4.49761C1.79798 5.15058 1.66447 5.8409 1.65001 6.53881C1.59961 7.42921 1.59961 7.71481 1.59961 9.99961C1.59961 12.2844 1.59961 12.57 1.65001 13.4604C1.66447 14.1583 1.79798 14.8486 2.04481 15.5016C2.24992 16.064 2.58025 16.5725 3.01081 16.9884C3.42823 17.4172 3.93622 17.7472 4.49761 17.9544C5.15058 18.2012 5.8409 18.3348 6.53881 18.3492C7.42921 18.3996 7.71481 18.3996 9.99961 18.3996C12.2844 18.3996 12.57 18.3996 13.4604 18.3492C14.1583 18.3348 14.8486 18.2012 15.5016 17.9544C16.064 17.7493 16.5725 17.419 16.9884 16.9884C17.4187 16.5706 17.7514 16.0629 17.9628 15.5016C18.2023 14.8469 18.3329 14.1574 18.3492 13.4604C18.3492 12.57 18.3996 12.2844 18.3996 9.99961C18.3996 7.71481 18.3996 7.42921 18.3492 6.53881ZM16.8372 13.3596C16.8311 13.8928 16.7345 14.4211 16.5516 14.922C16.4175 15.2876 16.2021 15.6179 15.9216 15.888C15.6492 16.1656 15.3195 16.3806 14.9556 16.518C14.4547 16.7009 13.9264 16.7975 13.3932 16.8036C12.5532 16.8456 12.2424 16.854 10.0332 16.854C7.82401 16.854 7.51321 16.854 6.67321 16.8036C6.11956 16.814 5.56827 16.7287 5.04361 16.5516C4.69567 16.4072 4.38115 16.1928 4.11961 15.9216C3.8408 15.6518 3.62808 15.3212 3.49801 14.9556C3.29293 14.4475 3.17918 13.9072 3.16201 13.3596C3.16201 12.5196 3.11161 12.2088 3.11161 9.99961C3.11161 7.79041 3.11161 7.47961 3.16201 6.63961C3.16577 6.0945 3.26529 5.55428 3.45601 5.04361C3.60389 4.68905 3.83087 4.373 4.11961 4.11961C4.37481 3.83079 4.69021 3.60141 5.04361 3.44761C5.55563 3.26285 6.09529 3.16628 6.63961 3.16201C7.47961 3.16201 7.79041 3.11161 9.99961 3.11161C12.2088 3.11161 12.5196 3.11161 13.3596 3.16201C13.8928 3.16813 14.4211 3.2647 14.922 3.44761C15.3037 3.58928 15.6463 3.8196 15.9216 4.11961C16.1969 4.37764 16.412 4.6931 16.5516 5.04361C16.7383 5.55511 16.8349 6.0951 16.8372 6.63961C16.8792 7.47961 16.8876 7.79041 16.8876 9.99961C16.8876 12.2088 16.8792 12.5196 16.8372 13.3596ZM9.99961 5.69041C7.6208 5.69505 5.69572 7.62639 5.69881 10.0052C5.7019 12.384 7.63199 14.3103 10.0108 14.3088C12.3896 14.3073 14.3172 12.3784 14.3172 9.99961C14.3195 8.85459 13.865 7.75595 13.0546 6.94709C12.2441 6.13823 11.1446 5.68593 9.99961 5.69041ZM9.99961 12.7968C8.45476 12.7968 7.20241 11.5445 7.20241 9.99961C7.20241 8.45476 8.45476 7.20241 9.99961 7.20241C11.5445 7.20241 12.7968 8.45476 12.7968 9.99961C12.7968 10.7415 12.5021 11.453 11.9775 11.9775C11.453 12.5021 10.7415 12.7968 9.99961 12.7968Z" fill="#2F302C"/>
</g>
</g>
</g>
</svg>
