<svg width="60" height="60" viewBox="0 0 60 60" fill="none" xmlns="http://www.w3.org/2000/svg">
<g id="phone 1">
<path id="Vector" d="M30.0513 2.55566H29.9997C22.7211 2.55566 15.7406 5.44708 10.5938 10.5938C5.44708 15.7406 2.55566 22.7211 2.55566 29.9997C2.55566 37.2783 5.44708 44.2588 10.5938 49.4055C15.7406 54.5522 22.7211 57.4437 29.9997 57.4437C30.2384 57.4437 30.4673 57.3488 30.6361 57.1801C30.8048 57.0113 30.8997 56.7824 30.8997 56.5437C30.8997 56.305 30.8048 56.076 30.6361 55.9073C30.4673 55.7385 30.2384 55.6437 29.9997 55.6437C23.1985 55.6437 16.6758 52.9419 11.8666 48.1327C7.05743 43.3235 4.35566 36.8009 4.35566 29.9997C4.35566 23.1985 7.05743 16.6758 11.8666 11.8666C16.6758 7.05743 23.1985 4.35566 29.9997 4.35566H30.0483C34.7303 4.36489 39.3204 5.65562 43.321 8.08793C47.3217 10.5202 50.5802 14.0013 52.7432 18.1537C54.9062 22.3061 55.8913 26.9714 55.5915 31.6438C55.2918 36.3162 53.7187 40.8175 51.0429 44.6595C50.6471 45.2255 50.1317 45.6975 49.5332 46.0423C48.9348 46.387 48.2678 46.596 47.5797 46.6545C46.8779 46.7161 46.1711 46.6232 45.509 46.3824C44.847 46.1416 44.2457 45.7587 43.7475 45.2607L42.8997 44.4099C43.2261 44.2149 43.5471 44.0067 43.8597 43.7823C44.4899 43.3404 45.0804 42.8443 45.6243 42.2997H45.6273C46.0908 41.8293 46.3499 41.1949 46.3479 40.5345C46.346 39.8741 46.0833 39.2411 45.6171 38.7735L40.9563 34.1181C40.4879 33.6509 39.8534 33.3886 39.192 33.3886C38.5305 33.3886 37.896 33.6509 37.4277 34.1181L36.7317 34.8117C36.5028 35.0388 36.2517 35.2424 35.9823 35.4195C35.0875 35.998 34.0218 36.2532 32.9621 36.1426C31.9024 36.032 30.9123 35.5624 30.1563 34.8117L24.0657 28.7211C23.4932 28.143 23.1726 27.362 23.1737 26.5484C23.1748 25.7349 23.4976 24.9548 24.0717 24.3783L25.8813 22.5597C26.1135 22.3286 26.2979 22.0539 26.4236 21.7514C26.5494 21.4489 26.6142 21.1245 26.6142 20.7969C26.6142 20.4692 26.5494 20.1448 26.4236 19.8423C26.2979 19.5398 26.1135 19.2651 25.8813 19.0341L21.2283 14.3817C20.9979 14.1478 20.7232 13.9623 20.4201 13.8361C20.1171 13.7099 19.7919 13.6455 19.4637 13.6467C18.8377 13.6443 18.2342 13.8803 17.7759 14.3067C17.7481 14.3284 17.7216 14.3519 17.6967 14.3769C17.1563 14.9179 16.6625 15.5036 16.2207 16.1277C14.4986 18.5284 13.5917 21.4181 13.6331 24.3724C13.6746 27.3267 14.6623 30.1898 16.4511 32.5413C19.5922 36.7046 23.2994 40.4088 27.4653 43.5465C29.8744 45.3724 32.8135 46.3625 35.8365 46.3665C37.6825 46.3644 39.5091 45.9899 41.2071 45.2655L42.4743 46.5345C43.1573 47.22 43.9829 47.7468 44.8924 48.0776C45.8019 48.4084 46.773 48.535 47.7369 48.4485C48.6875 48.3671 49.6087 48.0777 50.4351 47.6007C51.2614 47.1237 51.9728 46.4709 52.5189 45.6885C55.383 41.5769 57.0669 36.7598 57.388 31.7593C57.709 26.7588 56.655 21.7658 54.3401 17.3218C52.0252 12.8777 48.5379 9.15226 44.2563 6.54928C39.9746 3.9463 35.062 2.56518 30.0513 2.55566ZM28.5513 42.1089C24.519 39.0737 20.9305 35.49 17.8899 31.4619C16.4453 29.5616 15.5993 27.2742 15.4598 24.8912C15.3202 22.5083 15.8934 20.1378 17.1063 18.0819L20.4381 21.4143C20.6069 21.5831 20.8359 21.678 21.0747 21.678C21.3134 21.678 21.5424 21.5831 21.7113 21.4143C21.8801 21.2454 21.975 21.0164 21.975 20.7777C21.975 20.5389 21.8801 20.3099 21.7113 20.1411L18.1503 16.5777C18.3903 16.2777 18.6423 15.9879 18.9129 15.7131C18.9369 15.6943 18.96 15.6743 18.9819 15.6531C19.1128 15.527 19.2877 15.457 19.4695 15.4576C19.6513 15.4583 19.8256 15.5297 19.9557 15.6567L24.6117 20.3127C24.6766 20.3772 24.7281 20.4539 24.7631 20.5385C24.7981 20.6231 24.816 20.7137 24.8157 20.8053C24.8156 20.8955 24.7975 20.9848 24.7624 21.0679C24.7274 21.151 24.6761 21.2264 24.6117 21.2895L22.7907 23.1159C21.8829 24.0307 21.3735 25.2672 21.3735 26.556C21.3735 27.8447 21.8829 29.0812 22.7907 29.9961L28.8837 36.0843C29.8427 37.035 31.0747 37.6623 32.4077 37.8786C33.7406 38.095 35.1078 37.8895 36.3183 37.2909L39.9783 40.9509C40.148 41.1148 40.3753 41.2055 40.6113 41.2035C40.8473 41.2014 41.073 41.1068 41.2399 40.9399C41.4068 40.773 41.5014 40.5473 41.5035 40.3113C41.5055 40.0753 41.4148 39.848 41.2509 39.6783L37.8237 36.2511C37.8837 36.1959 37.9491 36.1437 38.0037 36.0867L38.6997 35.3877C38.8303 35.2574 39.0072 35.1842 39.1917 35.1842C39.3761 35.1842 39.5531 35.2574 39.6837 35.3877L44.3445 40.0431C44.4747 40.1736 44.5483 40.3502 44.5492 40.5347C44.5501 40.7191 44.4783 40.8965 44.3493 41.0283C43.8778 41.5 43.3658 41.9295 42.8193 42.3117C40.732 43.8093 38.2193 44.5978 35.6507 44.5613C33.082 44.5248 30.5927 43.6652 28.5489 42.1089H28.5513Z" fill="black"/>
</g>
</svg>
