<svg width="20" height="20" viewBox="0 0 20 20" fill="none" xmlns="http://www.w3.org/2000/svg">
<g id="Pinterest svg" clip-path="url(#clip0_3340_931)">
<g id="art">
<g id="Group">
<path id="Vector" d="M9.99968 19.1522C15.0623 19.1522 19.1663 15.0516 19.1663 9.99311C19.1663 4.93467 15.0623 0.833984 9.99968 0.833984C4.93706 0.833984 0.833008 4.93467 0.833008 9.99311C0.833008 15.0516 4.93706 19.1522 9.99968 19.1522Z" fill="white"/>
<g id="Group_2">
<path id="Vector_2" d="M9.99967 0.833984C4.93726 0.833984 0.833008 4.93486 0.833008 9.99311C0.833008 13.8754 3.24727 17.1923 6.65742 18.5266C6.57443 17.8029 6.50653 16.6872 6.6876 15.8957C6.85358 15.1795 7.75893 11.3425 7.75893 11.3425C7.75893 11.3425 7.48733 10.7922 7.48733 9.98557C7.48733 8.71159 8.2267 7.76175 9.14714 7.76175C9.93177 7.76175 10.309 8.34975 10.309 9.05082C10.309 9.83481 9.81106 11.0108 9.547 12.1039C9.32821 13.016 10.0072 13.7623 10.905 13.7623C12.5347 13.7623 13.7871 12.0436 13.7871 9.57096C13.7871 7.3773 12.2102 5.84701 9.95441 5.84701C7.34398 5.84701 5.81243 7.79945 5.81243 9.81973C5.81243 10.6037 6.11421 11.448 6.49144 11.9079C6.56689 11.9983 6.57443 12.0812 6.5518 12.1717C6.4839 12.4582 6.32546 13.0838 6.29529 13.212C6.25756 13.3778 6.15948 13.4155 5.98596 13.3326C4.83918 12.7974 4.12245 11.1314 4.12245 9.78204C4.12245 6.89484 6.21984 4.24133 10.1807 4.24133C13.357 4.24133 15.8316 6.50284 15.8316 9.53327C15.8316 12.6919 13.8399 15.2323 11.0785 15.2323C10.1506 15.2323 9.27539 14.7498 8.98116 14.1769C8.98116 14.1769 8.52094 15.9258 8.40777 16.3555C8.20406 17.1546 7.64577 18.1496 7.26854 18.7602C8.12862 19.0241 9.03397 19.1673 9.98459 19.1673C15.047 19.1673 19.1513 15.0664 19.1513 10.0082C19.1663 4.93486 15.0621 0.833984 9.99967 0.833984Z" fill="#2F302C"/>
</g>
</g>
</g>
</g>
<defs>
<clipPath id="clip0_3340_931">
<rect width="20" height="20" fill="white"/>
</clipPath>
</defs>
</svg>
