<svg width="20" height="20" viewBox="0 0 20 20" fill="none" xmlns="http://www.w3.org/2000/svg">
<g id="Brand">
<g id="Iconspace_User 1_25px">
<g id="twitter (2)">
<path id="Path" fill-rule="evenodd" clip-rule="evenodd" d="M18.3996 4.76448C17.7682 5.03985 17.1005 5.22189 16.4172 5.30493C17.1381 4.872 17.6783 4.19092 17.9376 3.38804C17.2602 3.79343 16.5186 4.07905 15.7452 4.23248C14.6819 3.0733 12.9738 2.78279 11.5904 3.52584C10.207 4.2689 9.49772 5.8578 9.86521 7.39071C7.09519 7.24986 4.51501 5.93299 2.76721 3.76804C2.46408 4.30018 2.30481 4.90282 2.30521 5.51604C2.30303 6.67269 2.87692 7.75364 3.83401 8.3956C3.28631 8.38062 2.75031 8.23287 2.27161 7.96493V8.00715C2.28007 9.65211 3.43873 11.064 5.04361 11.3849C4.74394 11.4766 4.43282 11.5249 4.11961 11.5285C3.9028 11.5259 3.68652 11.5062 3.47281 11.4694C3.92723 12.8763 5.2188 13.8391 6.69001 13.8676C5.47806 14.8263 3.98175 15.3495 2.43961 15.3538C2.15883 15.3547 1.87827 15.3378 1.59961 15.3032C3.17413 16.3251 5.00901 16.8677 6.88321 16.8654C9.49583 16.8926 12.0097 15.8631 13.8596 14.0082C15.7094 12.1533 16.74 9.62877 16.7196 7.00226C16.7196 6.85871 16.7196 6.70671 16.7196 6.55471C17.3788 6.06055 17.9472 5.45475 18.3996 4.76448Z" fill="#2F302C"/>
</g>
</g>
</g>
</svg>
